<svg width="164" height="175" viewBox="0 0 164 175" version="1" xmlns="http://www.w3.org/2000/svg"><g fill="#65A6FC" fill-rule="evenodd"><path d="M135 10c7 0 13 6 13 13s-6 12-13 12-12-5-12-12 5-13 12-13m0 89c2 0 3 1 3 3v57c0 3 3 6 6 6s6-3 6-6V58c0-1 1-2 2-2 2 0 3 1 3 2v35c0 7 9 7 9 1V52c0-8-5-11-13-11h-31c-8 0-13 3-13 11v42c0 6 9 6 9-1V58c0-1 1-2 2-2 2 0 3 1 3 2v101c0 3 2 6 6 6 3 0 5-3 5-6v-57c0-2 2-3 3-3"/><path d="M163 175H75V0h88v175zM132 23c0 7-6 12-13 12s-12-5-12-12 5-13 12-13 13 6 13 13m-12 93h2v44c0 3 2 5 5 5s5-2 5-5v-44h15l-15-47V55c0-1 1-2 2-2s2 1 2 2v1l8 32 1 2c1 5 8 4 7-1v-1l-8-37v-1c-2-7-4-10-12-10h-26c-7 0-9 3-11 10v1l-8 37v1c-1 5 5 6 7 1l1-2 8-32v-1c0-1 1-2 2-2s2 1 2 2v14l-15 47h15v44c0 3 2 5 5 5s5-2 5-5v-44h3z" mask="url(#mask-2)" transform="matrix(-1 0 0 1 164 0)"/></g></svg>