<?xml version="1.0" encoding="utf-8"?>
<!-- Generator: Adobe Illustrator 21.0.0, SVG Export Plug-In . SVG Version: 6.00 Build 0)  -->
<!DOCTYPE svg PUBLIC "-//W3C//DTD SVG 1.1//EN" "http://www.w3.org/Graphics/SVG/1.1/DTD/svg11.dtd">
<svg version="1.1" id="Layer_1" xmlns="http://www.w3.org/2000/svg" xmlns:xlink="http://www.w3.org/1999/xlink" x="0px" y="0px"
	 viewBox="0 0 400 400" style="enable-background:new 0 0 400 400;" xml:space="preserve">
	<path class="st0" d="M124.3,14.3c-44.5,87.9-85.9,177-123.9,267.1c7.9,1.8,15.7,3.7,23.6,5.5c13.6-47.1,28.3-93.9,45.9-140
		c8.8-23,18.4-45.8,28.9-68.3c5.3-11.2,10.8-22.3,16.6-33.3c4.3-8.2,8.6-21,18.1-26c-6.1-3-12.3-6-18.4-9
		c-2.6,40-26,76.6-45.3,112.3C49.5,160.1,30,198,15.2,237.4c-4.1,11,16.6,18.8,22.4,8c35.9-67.9,71.9-135.9,107.8-203.8h-21.1
		c1,1.7-2.4,7-3.2,8.5c-2.2,4.7-4.5,9.4-6.8,14c-4.5,9.4-9.1,18.7-13.6,28.1c-8.9,18.3-17.8,36.6-26.6,54.9
		c-18,37-35.9,74-53.9,111c-5.4,11.1,15.5,17.8,22.4,8c22.3-31.7,36-67.2,51.1-101.6c16.1-36.9,32.3-73.8,48.4-110.7
		c-7.9-1.8-15.7-3.7-23.6-5.5c-22,86.5-68.1,166.8-93.5,252.5c-1.3,4.3,0.8,9.6,5.6,11.7C55.7,323.7,66.4,290,73,276.2
		c9.4-19.7,17.7-39.8,25.8-59.8c8.2-20.1,16.1-40.2,24.9-60.2c4.2-9.5,8.5-19,13.2-28.4c2.3-4.7,4.7-9.3,7.1-13.9
		c1.4-2.7,2.9-5.4,4.4-8.1c0.5-0.9,1-1.8,1.6-2.7c1.4-1.6,0.5-1.4-2.9,0.6c-3.9-4.4-7.9-8.8-11.8-13.1
		c-22.7,81.1-68.5,156.3-86,238.6c-2.8,13.1,18.5,18.3,23.6,5.5c29.4-73,58.9-146,92.5-217.7h-23.6c3.5,18.3-6,36.8-13.4,53.5
		c-8.1,18.4-16.3,36.8-24.4,55.1c-8,18-15.9,35.9-23.9,53.9c-7.2,16.2-19.8,34.9-9.5,51.9c5.3,8.8,18.8,5.1,22.4-2.5
		c18.7-39.8,37.4-79.6,56.2-119.4c9.3-19.7,18.5-39.4,27.8-59c8.4-17.8,15.5-37.4,29.7-52.6h-17.3c1,0.9-1.1,6.2-1.9,8.1
		c-2,5.1-4.2,10.1-6.3,15.1c-4.4,10.5-9,20.9-13.6,31.4c-9.5,21.3-19.3,42.4-29.5,63.4c-20.3,42-41.8,83.7-63.2,125.3
		c-6.2,12,12.5,22,21.1,10.5c29.6-39.7,49.7-83.7,70.3-127.1c10.1-21.4,20.5-42.7,32.4-63.4c5.9-10.4,12.3-20.5,19.1-30.5
		c3.4-5,7-9.9,10.7-14.7c2.7-3.5,6.7-11.2,11.3-12.9c-2.1,0.5-4.1,0.9-6.2,1.4c0.6,0,1.3,0.1,1.9,0.1c-3.9-4.4-7.9-8.8-11.8-13.1
		c-37.5,81.6-75,163.2-112.4,244.8c-5.2,11.3,15.4,17.7,22.4,8c52.8-73,82.9-155.8,134.7-229.2h-21.1c1.7,3.3-0.9,8.9-1.8,12.1
		c-1.5,5.2-3,10.5-4.7,15.7c-3.1,9.6-6.7,19-10.5,28.4c-8,19.5-21.2,38.7-30.9,57.6c-19.6,38.2-46.9,75.8-64.2,114.9
		c-4.8,10.9,26.4,18.6,32.4,8c45.9-81,92.3-162.5,154.7-235.5c-7-3.5-14.1-7-21.1-10.5c-52.7,90.4-105.3,180.7-158,271.1
		c-6.9,11.9,13.3,22.2,21.1,10.5c58.4-86.8,116.8-173.7,175.2-260.5c-7.5-2.7-14.9-5.3-22.4-8c-12.1,40.1-39.6,76.1-62.8,112
		c-25.3,39.2-50.7,78.3-76,117.5c-7.6,11.7,13.3,22.1,21.1,10.5c47.4-70.2,94.7-140.4,142.1-210.6c-7-3.5-14.1-7-21.1-10.5
		c-45.2,75.5-90.4,151-135.6,226.5c-7.1,11.9,12.8,21.9,21.1,10.5c48.7-67.4,97.5-134.7,146.2-202.1c-7-3.5-14.1-7-21.1-10.5
		c-35.6,59.2-71.3,118.4-106.9,177.6c-7.1,11.8,13.1,22.1,21.1,10.5c40.2-57.7,80.5-115.4,120.7-173.1c-7-3.5-14.1-7-21.1-10.5
		c-23.5,37.1-47,74.2-70.5,111.4c-11.7,18.6-23.5,37.1-35.2,55.7c-10.9,17.3-22.5,34.5-29.3,53.4c-4.1,11.4,15.2,17.9,22.4,8
		c29.2-40.4,57.2-81.3,84-122.9c24.3-37.7,45.4-78.9,80.8-110.3c-6.4-4.2-12.8-8.4-19.2-12.6c-26.6,45.2-53.2,90.4-79.8,135.6
		c-6.5,11.1-13.1,22.2-19.6,33.3c-2.9,4.9-8.2,10.8-6.3,16.6c1.7,5.2,7.5,9,13.8,9.2c13.3,0.5,19.8-10.4,25.8-18.6
		c7.7-10.5,15.4-21.1,23.1-31.6c8.3-11.4-12.9-21.8-21.1-10.5c-5.5,7.5-11,15.1-16.5,22.6c-2.5,3.4-5,6.8-7.4,10.2
		c-1.4,1.9-2.8,3.7-4.1,5.7c-1.8,2.6-2.3,1.5,0.3,1.6c2.1,0.5,4.1,0.9,6.2,1.4c0.8,0.7,1.6,1.4,2.4,2.1v10.5
		c34.8-59.2,69.6-118.3,104.5-177.5c6-10.1-9.1-21.5-19.2-12.6c-36.3,32.1-58.2,73.5-83.1,112.1c-27.3,42.3-55.8,84.1-85.5,125.2
		c7.5,2.7,14.9,5.3,22.4,8c6.7-18.4,18.4-35.2,29.1-52.1c11.5-18.2,23-36.3,34.5-54.5c23-36.3,46-72.6,68.9-108.9
		c7.4-11.8-13.1-22-21.1-10.5c-40.2,57.7-80.5,115.4-120.7,173.1c7,3.5,14.1,7,21.1,10.5c35.6-59.2,71.3-118.4,106.9-177.6
		c7.1-11.9-12.8-21.9-21.1-10.5c-48.7,67.4-97.5,134.7-146.2,202.1c7,3.5,14.1,7,21.1,10.5c45.2-75.5,90.4-151,135.6-226.5
		c7.1-11.8-13.3-22.2-21.1-10.5C273.3,208,226,278.2,178.6,348.4c7,3.5,14.1,7,21.1,10.5c25.9-40,51.7-80,77.6-119.9
		c23.8-36.7,51.3-73.6,63.7-114.5c3.4-11.2-15.4-18.4-22.4-8C259.8,203.2,201.4,290,142.9,376.9c7,3.5,14.1,7,21.1,10.5
		c52.7-90.4,105.3-180.7,158-271.1c7.1-12.1-12-21.2-21.1-10.5c-62.4,73-118.8,154.5-164.7,235.5c7.5,2.7,24.9,5.3,32.4,8
		c18.3-41.3,41.2-80.8,61.5-121.4c10-19.9,19.4-40,27.3-60.6c3.9-10.2,7.5-20.6,10.5-31c3.2-11,5.9-20.9,0.4-31.7
		c-3.8-7.5-16.9-6-21.1,0c-51.8,73.4-81.9,156.2-134.7,229.2c7.5,2.7,14.9,5.3,22.4,8c37.5-81.6,75-163.2,112.4-244.8
		c3.1-6.8-4.7-12.7-11.8-13.1c-14.5-1-23.1,14.9-29.6,23.6c-7.8,10.3-15,21-21.6,31.9c-13.5,22-24.9,44.9-35.9,67.9
		c-21.9,45.7-42.3,92.1-73.5,134c7,3.5,14.1,7,21.1,10.5c23.6-45.7,47.1-91.5,69.3-137.7c11.1-23.1,21.8-46.3,32-69.7
		c4.9-11.4,10.4-22.8,14.5-34.4c3.3-9.5,3.3-19.1-5.1-26.6c-4.2-3.7-13.3-4.3-17.3,0c-14.8,15.8-23,34.2-31.8,52.8
		c-9.9,21-19.7,41.9-29.6,62.9c-19.5,41.5-39,83-58.6,124.5c7.5-0.8,14.9-1.7,22.4-2.5c-3.6-6,3.2-16.2,5.7-21.9
		c4-9,8-18,11.9-26.9c8-18,15.9-35.9,23.9-53.9c7.7-17.4,15.6-34.8,23.1-52.3c7.6-17.8,12.7-35.7,9-54.6c-0.9-4.4-6.9-7.6-11.8-7.6
		c-5.8,0-9.8,3.3-11.8,7.6c-33.6,71.7-63.1,144.7-92.5,217.7c7.9,1.8,15.7,3.7,23.6,5.5c17.5-82.3,63.3-157.5,86-238.6
		c1.8-6.4-3.6-13.3-11.8-13.1c-11.8,0.2-17.3,7.6-21.8,15.9c-5.1,9.3-9.8,18.7-14.4,28.2c-9.1,18.9-17.1,38.1-25,57.4
		s-15.5,38.6-23.7,57.8c-3.9,9.2-8,18.3-12.3,27.4c-2.2,4.7-4.5,9.3-6.9,14c-1.2,2.3-2.4,4.7-3.6,7c-0.5,1-1,1.9-1.7,2.9
		c-1.4,1.3-1.2,1.5,0.6,0.6c2.1,0.5,4.1,0.9,6.2,1.4c-0.6-0.3-1.2-0.5-1.7-0.8c1.9,3.9,3.8,7.8,5.6,11.7
		c25.4-85.7,71.5-166,93.5-252.5c3.4-13.2-18.2-18-23.6-5.5C102.5,84.6,86.8,120.6,71,156.7c-14.7,33.7-28,68.2-49.7,99.2
		c7.5,2.7,14.9,5.3,22.4,8C63,224.1,82.2,184.5,101.4,145c9.5-19.6,19-39.1,28.5-58.7c4.7-9.8,9.5-19.6,14.2-29.3
		c4.3-8.8,6.5-16.8,1.3-25.8c-3.8-6.6-17.5-7-21.1,0C88.4,99.1,52.4,167,16.5,235c7.5,2.7,14.9,5.3,22.4,8
		c15.1-40.2,35.3-78.7,56-117c20-37,42.1-74.2,44.8-115.6c0.5-7.9-10.8-12.9-18.4-9c-11.8,6.1-17.6,16-23.1,26.3
		c-6.4,11.8-12.5,23.7-18.3,35.8C68.6,86.7,58.5,110.2,49.2,134c-18.9,48.5-34.4,97.8-48.8,147.4c-3.8,13.1,18.4,18,23.6,5.5
		c37.3-88.4,77.7-175.8,121.4-262.1c2.6-5.2,1.8-11.1-4.4-14.2C135.9,8,126.9,9.2,124.3,14.3"/>
</svg>
