<?xml version="1.0" encoding="utf-8"?>
<!-- Generator: Adobe Illustrator 17.0.0, SVG Export Plug-In . SVG Version: 6.00 Build 0)  -->
<!DOCTYPE svg PUBLIC "-//W3C//DTD SVG 1.1//EN" "http://www.w3.org/Graphics/SVG/1.1/DTD/svg11.dtd">
<svg version="1.1" id="Layer_1" xmlns="http://www.w3.org/2000/svg" xmlns:xlink="http://www.w3.org/1999/xlink" x="0px" y="0px"
	 width="158px" height="158px" viewBox="0 0 158 158" enable-background="new 0 0 158 158" xml:space="preserve">
<linearGradient id="SVGID_1_" gradientUnits="userSpaceOnUse" x1="152.9245" y1="-4.9967" x2="-18.0755" y2="169.0033">
	<stop  offset="0.0049" style="stop-color:#0317C3"/>
	<stop  offset="1" style="stop-color:#FF0E5E"/>
</linearGradient>
<path fill="url(#SVGID_1_)" d="M13,16c4,0,8-4,8-8c0-5-4-8-8-8C8,0,5,3,5,8C5,12,8,16,13,16 M20,71V45h1c3,0,5-2,5-5V22c0-3-2-5-5-5
	H5c-3,0-5,2-5,5v18c0,3,2,5,5,5h1v26c0,2,2,4,4,4h6C18,75,20,73,20,71 M46,16c4,0,8-4,8-8c0-5-4-8-8-8c-5,0-8,3-8,8
	C38,12,41,16,46,16 M53,71V45h1c3,0,5-2,5-5V22c0-3-2-5-5-5H38c-3,0-5,2-5,5v18c0,3,2,5,5,5h1v26c0,2,2,4,4,4h6C51,75,53,73,53,71
	 M79,16c4,0,8-4,8-8c0-5-4-8-8-8c-5,0-8,3-8,8C71,12,74,16,79,16 M86,71V45h1c3,0,5-2,5-5V22c0-3-2-5-5-5H71c-3,0-5,2-5,5v18
	c0,3,2,5,5,5h1v26c0,2,2,4,4,4h6C84,75,86,73,86,71 M111,16c4,0,8-4,8-8c0-5-4-8-8-8c-5,0-8,3-8,8C103,12,106,16,111,16 M118,71V45
	h1c3,0,5-2,5-5V22c0-3-2-5-5-5h-16c-3,0-5,2-5,5v18c0,3,2,5,5,5h1v26c0,2,2,4,4,4h6C116,75,118,73,118,71 M144,16c4,0,8-4,8-8
	c0-5-4-8-8-8c-5,0-8,3-8,8C136,12,139,16,144,16 M152,17h-16c-3,0-5,2-5,5v18c0,3,2,5,5,5h1v26c0,2,2,4,4,4h6c2,0,4-2,4-4V45h1
	c3,0,5-2,5-5V22C157,19,155,17,152,17 M22,90c0,4,3,8,8,8c4,0,8-4,8-8c0-5-4-8-8-8C25,82,22,85,22,90 M37,99H21c-3,0-5,2-5,5v18
	c0,3,2,5,5,5h1v26c0,2,2,4,4,4h6c2,0,4-2,4-4v-26h1c3,0,5-2,5-5v-18C42,101,40,99,37,99 M54,90c0,4,3,8,8,8c4,0,8-4,8-8c0-5-4-8-8-8
	C57,82,54,85,54,90 M70,99H54c-3,0-5,2-5,5v18c0,3,2,5,5,5h1v26c0,2,2,4,4,4h6c2,0,4-2,4-4v-26h1c3,0,5-2,5-5v-18
	C75,101,73,99,70,99 M87,90c0,4,3,8,8,8c4,0,8-4,8-8c0-5-4-8-8-8C90,82,87,85,87,90 M103,99H87c-3,0-5,2-5,5v18c0,3,2,5,5,5h1v26
	c0,2,2,4,4,4h6c2,0,4-2,4-4v-26h1c3,0,5-2,5-5v-18C108,101,106,99,103,99 M120,90c0,4,3,8,8,8c4,0,8-4,8-8c0-5-4-8-8-8
	C123,82,120,85,120,90 M136,99h-16c-3,0-5,2-5,5v18c0,3,2,5,5,5h1v26c0,2,2,4,4,4h6c2,0,4-2,4-4v-26h1c3,0,5-2,5-5v-18
	C141,101,139,99,136,99"/>
</svg>
